<svg xmlns="http://www.w3.org/2000/svg" width="32" height="32" viewBox="0 0 32 32">
  <defs>
    <linearGradient id="grad1" x1="0%" y1="0%" x2="100%" y2="100%">
      <stop offset="0%" style="stop-color:#2c5282;stop-opacity:1" />
      <stop offset="100%" style="stop-color:#4299e1;stop-opacity:1" />
    </linearGradient>
  </defs>
  <rect width="32" height="32" rx="4" fill="url(#grad1)"/>
  <!-- Simple B letter for favicon (representing ENSABM) -->
  <path d="M10 6h12c1.1 0 2 0.9 2 2v4c0 1.1-0.9 2-2 2v0c1.1 0 2 0.9 2 2v4c0 1.1-0.9 2-2 2h-12v-16z" fill="white" fill-opacity="0.2"/>
  <path d="M14 10h5c1.1 0 2 0.9 2 2s-0.9 2-2 2h-5v-4z" fill="white"/>
  <path d="M14 18h5c1.1 0 2 0.9 2 2s-0.9 2-2 2h-5v-4z" fill="white"/>
  <path d="M10 6h4v20h-4z" fill="white"/>
</svg>
